<svg xmlns="http://www.w3.org/2000/svg" width="24" height="24"><!--Boxicons v3.0 https://boxicons.com | License  https://docs.boxicons.com/free--><path d="M10 11c.55 0 1-.45 1-1V4c0-.55-.45-1-1-1H4c-.55 0-1 .45-1 1v6c0 .55.45 1 1 1zM5 5h4v4H5zm16.11 5.27-3.67-6.93c-.09-.18-.27-.27-.44-.27s-.35.09-.44.27l-3.67 6.93c-.18.33.07.73.44.73h7.34c.38 0 .62-.4.44-.73M15.82 9 17 6.77 18.18 9zM17 13c-2.21 0-4 1.79-4 4s1.79 4 4 4 4-1.79 4-4-1.79-4-4-4m0 6c-1.1 0-2-.9-2-2s.9-2 2-2 2 .9 2 2-.9 2-2 2M4.21 21.21 7 18.41l2.79 2.8 1.42-1.42L8.41 17l2.8-2.79-1.42-1.42L7 15.59l-2.79-2.8-1.42 1.42L5.59 17l-2.8 2.79z"/></svg>