<svg xmlns="http://www.w3.org/2000/svg" width="24" height="24"><!--Boxicons v3.0 https://boxicons.com | License  https://docs.boxicons.com/free--><path d="M12 2C6.49 2 2 5.59 2 10c0 2.91 1.9 5.51 5 6.93V20c0 .38.21.72.55.89.14.07.29.11.45.11.21 0 .42-.07.6-.2l3.74-2.8c5.36-.14 9.66-3.67 9.66-8s-4.49-8-10-8m0 14c-.22 0-.43.07-.6.2L9 18v-1.73c0-.41-.25-.78-.64-.93C5.67 14.3 4 12.26 4 10c0-3.31 3.59-6 8-6s8 2.69 8 6-3.59 6-8 6"/><path d="M13.2 8.67 12 6l-1.2 2.67-2.8.22 2.22 2L9.33 14 12 12.22 14.67 14l-.89-3.11 2.22-2z"/></svg>