<svg xmlns="http://www.w3.org/2000/svg" width="24" height="24"><!--Boxicons v3.0 https://boxicons.com | License  https://docs.boxicons.com/free--><path d="M11 14h2v2h-2zM9.53 7.03C8.87 7.69 8.5 8.57 8.5 9.5h2c0-.4.16-.78.44-1.06.57-.57 1.55-.57 2.12 0A1.499 1.499 0 0 1 12 11c-.55 0-1 .45-1 1v1h2v-.14c.55-.16 1.06-.46 1.47-.88.66-.66 1.03-1.54 1.03-2.47s-.36-1.81-1.03-2.47c-1.32-1.32-3.63-1.32-4.95 0Z"/><path d="M12 3C6.49 3 2 6.59 2 11c0 2.91 1.9 5.51 5 6.93V23l5.34-4c5.36-.14 9.66-3.67 9.66-8s-4.49-8-10-8m0 14h-.33L9 19v-2.42l-.64-.25C5.67 15.29 4 13.25 4 10.99c0-3.31 3.59-6 8-6s8 2.69 8 6-3.59 6-8 6Z"/></svg>