<svg xmlns="http://www.w3.org/2000/svg" width="24" height="24"><!--Boxicons v3.0 https://boxicons.com | License  https://docs.boxicons.com/free--><path d="M15.35 8.14c-.87-.86-2.26-.86-3.12 0l-.22.22-.22-.22c-.87-.86-2.26-.86-3.12 0-.85.82-.87 2.16-.06 3.01l.06.06 3.35 3.29 3.35-3.29c.85-.82.87-2.16.06-3.01l-.06-.06Z"/><path d="M12 3C6.49 3 2 6.59 2 11c0 2.91 1.9 5.51 5 6.93V23l5.34-4c5.36-.14 9.66-3.67 9.66-8s-4.49-8-10-8m0 14h-.33L9 19v-2.42l-.64-.25C5.67 15.29 4 13.25 4 10.99c0-3.31 3.59-6 8-6s8 2.69 8 6-3.59 6-8 6Z"/></svg>