<svg xmlns="http://www.w3.org/2000/svg" width="24" height="24"><!--Boxicons v3.0 https://boxicons.com | License  https://docs.boxicons.com/free--><path d="M20 10h-1V5c0-.27-.05-.53-.16-.78a2.08 2.08 0 0 0-1.06-1.06c-.25-.1-.51-.16-.78-.16h-2c0-.55-.45-1-1-1H7c-.55 0-1 .45-1 1H4c-.27 0-.53.05-.78.16a2.08 2.08 0 0 0-1.06 1.06c-.1.25-.16.51-.16.78v12c0 .27.05.53.16.78a2.08 2.08 0 0 0 1.06 1.06c.25.1.51.16.78.16h6v1c0 1.1.9 2 2 2h8c1.1 0 2-.9 2-2v-8c0-1.1-.9-2-2-2M8 4h5v1H8zm2 8v5H4V5h2v1c0 .55.45 1 1 1h7c.55 0 1-.45 1-1V5h2v5h-5c-1.1 0-2 .9-2 2m10 8h-8v-8h8z"/></svg>