<svg xmlns="http://www.w3.org/2000/svg" width="24" height="24"><!--Boxicons v3.0 https://boxicons.com | License  https://docs.boxicons.com/free--><path d="M19.41 4.5c-.78-.78-2.05-.78-2.83 0l-1.29 1.29-1.31 1.31-5.83 1.59L5.9 18.81l.02.02c-.67.36-1.4.6-1.79.42-.4-.19-.64-1.03-.64-2.25 0-1.92.87-4.14 1.72-6.28 1.14-2.9 2.13-5.4.94-7.15C5.43 2.52 4.07 2 2 2v2c1.33 0 2.19.24 2.5.69.6.88-.29 3.12-1.15 5.3C2.48 12.2 1.49 14.7 1.49 17c0 2.13.6 3.49 1.77 4.06.38.18.78.26 1.18.26 1.11 0 2.22-.56 2.93-1.01l.3.3 10.12-2.25 1.59-5.83 1.31-1.31 1.29-1.29c.78-.78.78-2.05 0-2.83l-2.59-2.59ZM9.85 18.06l3.07-3.07H13c.83 0 1.5-.67 1.5-1.5s-.67-1.5-1.5-1.5-1.5.67-1.5 1.5v.08l-3.07 3.07 1.41-6.34 5.14-1.4 2.61 2.61-1.4 5.14zM19 10.08l-2.59-2.59.29-.29 1.29-1.29 2.59 2.59-1.29 1.29z"/></svg>