<svg xmlns="http://www.w3.org/2000/svg" width="24" height="24"><!--Boxicons v3.0 https://boxicons.com | License  https://docs.boxicons.com/free--><path d="M19.41 4.5c-.78-.78-2.05-.78-2.83 0l-1.29 1.29-1.31 1.31-5.83 1.59L5.9 18.81l1.78 1.78 10.12-2.25 1.59-5.83 1.31-1.31 1.29-1.29c.78-.78.78-2.05 0-2.83L19.4 4.49ZM9.85 18.06l3.07-3.07H13c.83 0 1.5-.67 1.5-1.5s-.67-1.5-1.5-1.5-1.5.67-1.5 1.5v.08l-3.07 3.07 1.41-6.34 5.14-1.4 2.61 2.61-1.4 5.14zM19 10.08l-2.59-2.59.29-.29 1.29-1.29 2.59 2.59-1.29 1.29z"/><path d="M5 2v3H2v2h3v3h2V7h3V5H7V2z"/></svg>