<svg xmlns="http://www.w3.org/2000/svg" width="24" height="24"><!--Boxicons v3.0 https://boxicons.com | License  https://docs.boxicons.com/free--><path d="M21 6c0-2.21-1.79-4-4-4H7c-1.07 0-2.07.42-2.83 1.17C3.41 3.93 3 4.93 3 6v1H2v4h1.01v.58l-.13.13c-.57.57-.88 1.32-.88 2.12V18c0 .74.41 1.38 1 1.72V21c0 .55.45 1 1 1h1c.55 0 1-.45 1-1v-1h12v1c0 .55.45 1 1 1h1c.55 0 1-.45 1-1v-1.28A2 2 0 0 0 22 18v-4.17c0-.8-.31-1.56-.88-2.12l-.12-.12V11h1V7h-1zm-1 12H4v-4.17c0-.27.1-.52.29-.71l.12-.12h15.17l.12.12c.19.19.29.44.29.71V18ZM5 11V8h6v3zm14 0h-6V8h6zM5.59 4.59c.38-.38.88-.59 1.42-.59h10c1.1 0 2 .9 2 2H5c0-.54.21-1.04.58-1.41Z"/><path d="M6.5 14a1.5 1.5 0 1 0 0 3 1.5 1.5 0 1 0 0-3m11 0a1.5 1.5 0 1 0 0 3 1.5 1.5 0 1 0 0-3"/></svg>