<svg xmlns="http://www.w3.org/2000/svg" width="24" height="24"><!--Boxicons v3.0 https://boxicons.com | License  https://docs.boxicons.com/free--><path d="m20.45 6.11-8-4a1 1 0 0 0-.89 0l-8.01 4c-.31.15-.51.45-.55.79-.01.11-.96 10.77 8.59 15.01a.98.98 0 0 0 .82 0C21.96 17.66 21.01 7 21 6.9a.98.98 0 0 0-.55-.79M4.97 7.64 11 4.62V11H5.27c-.29-1.46-.32-2.69-.3-3.37Zm.86 5.37h5.18v6.35c-2.86-1.7-4.38-4.11-5.18-6.35m7.18 6.35v-6.35h5.18c-.8 2.24-2.32 4.65-5.18 6.35m5.73-8.35h-5.73V4.63l6.03 3.02c.02.67-.01 1.91-.3 3.37Z"/></svg>