<svg xmlns="http://www.w3.org/2000/svg" width="24" height="24"><!--Boxicons v3.0 https://boxicons.com | License  https://docs.boxicons.com/free--><path d="m19.23 13.14-5.87-5.87-5.21 1.42L5.9 18.81l.18.18 5.42-5.42v-.08c0-.83.67-1.5 1.5-1.5s1.5.67 1.5 1.5-.67 1.5-1.5 1.5h-.08L7.5 20.41l.18.18 10.12-2.25 1.42-5.21Zm.18-8.64c-.78-.78-2.05-.78-2.83 0l-1.29 1.29-.29.29 5.41 5.41.29-.29 1.29-1.29c.78-.78.78-2.05 0-2.83L19.4 4.49Z"/><path d="M1.5 17c0 2.13.6 3.49 1.77 4.06.38.18.78.26 1.18.26.55 0 1.1-.15 1.6-.34l-1.66-1.66c-.1 0-.19-.02-.26-.06-.4-.19-.64-1.03-.64-2.25 0-1.92.87-4.14 1.72-6.28 1.14-2.9 2.13-5.4.94-7.15C5.43 2.53 4.07 2.01 2 2.01v2c1.33 0 2.19.24 2.5.69.6.88-.29 3.12-1.14 5.3-.87 2.21-1.86 4.71-1.86 7.01Z"/></svg>