<svg xmlns="http://www.w3.org/2000/svg" width="24" height="24"><!--Boxicons v3.0 https://boxicons.com | License  https://docs.boxicons.com/free--><path d="M20 10h-1V5c0-.27-.05-.53-.16-.78-.1-.24-.25-.45-.43-.64-.18-.18-.39-.32-.63-.43-.25-.1-.51-.16-.78-.16h-2c0-.55-.45-1-1-1H7c-.55 0-1 .45-1 1H4c-.27 0-.53.05-.78.16-.24.1-.45.24-.63.43-.18.18-.33.4-.43.64-.1.25-.16.51-.16.77v12c0 .27.05.53.16.78.1.24.25.45.43.64.18.18.39.32.63.43.25.1.51.16.78.16h6v1c0 1.1.9 2 2 2h8c1.1 0 2-.9 2-2v-8c0-1.1-.9-2-2-2m-10 2v5H4V5h2v1c0 .55.45 1 1 1h7c.55 0 1-.45 1-1V5h2v5h-5c-1.1 0-2 .9-2 2"/></svg>