<svg xmlns="http://www.w3.org/2000/svg" width="24" height="24"><!--Boxicons v3.0 https://boxicons.com | License  https://docs.boxicons.com/free--><path d="M21.98 10.33C21.79 7.49 16.87 6 12 6s-9.79 1.49-9.98 4.33c.19 1.95 4.23 4.05 9.98 4.05s9.8-2.11 9.98-4.05M13 19.98c1.39-.06 2.76-.24 4-.54v-3.58c-1.23.28-2.57.45-4 .5zm-6-4.13v3.58c1.24.3 2.61.48 4 .54v-3.62c-1.43-.06-2.77-.23-4-.5m12 2.95c1.8-.75 3-1.86 3-3.3v-1.79c-.8.62-1.82 1.15-3 1.58zm-14 0v-3.51c-1.18-.42-2.2-.96-3-1.58v1.79c0 1.44 1.2 2.54 3 3.3"/></svg>